<svg width="40" height="37" viewBox="0 0 40 37" fill="none" xmlns="http://www.w3.org/2000/svg">
  <g clip-path="url(#clip0_606_20309)">
    <path
      d="M3.71574 3.63369C8.10136 -0.678497 15.081 -1.18694 20.0547 2.29187C22.1618 0.858294 24.6896 0.0784298 27.2758 0.0784298C30.6682 0.0784298 33.8581 1.37438 36.2612 3.73309C40.9117 8.29376 41.2661 15.4922 37.087 20.4657C36.8338 20.7678 36.5573 21.0659 36.2612 21.3603L21.7334 35.6196C21.2816 36.063 20.6779 36.3077 20.0391 36.3077C19.4004 36.3077 18.7967 36.063 18.3449 35.6196L3.71963 21.2609C3.45089 20.9971 3.2133 20.741 3.00298 20.4887C1.06723 18.2485 3.05176e-05 15.3928 3.05176e-05 12.4492C-0.00775909 9.12332 1.31261 5.9924 3.71574 3.63369ZM5.08673 18.7684C5.25421 18.9672 5.43727 19.1622 5.6398 19.3648L20.0352 33.4979L34.3333 19.4642C34.5709 19.231 34.7812 19.0016 34.9798 18.7646C38.2632 14.8576 37.9828 9.20742 34.3333 5.62158C32.4482 3.77131 29.9438 2.75061 27.2758 2.75061C25.3634 2.75061 23.4978 3.3011 21.9048 4.30269L23.0769 8L19.6808 5.43426L19.155 4.99463C15.229 1.70315 9.28929 1.93634 5.6398 5.52219C3.75469 7.37627 2.71476 9.83437 2.71476 12.4454C2.71865 14.7582 3.55605 16.9984 5.08673 18.7684Z"
      fill="url(#paint0_linear_606_20309)"/>
    <path
      d="M15.658 23.3846C15.4711 23.3365 15.2787 23.3041 15.0986 23.2372C14.0904 22.861 13.4777 21.8935 13.5428 20.7963C13.6039 19.7682 14.341 18.8724 15.3539 18.633C15.6135 18.5716 15.8914 18.5918 16.1611 18.5749C16.1815 18.5738 16.202 18.5749 16.2376 18.5749C16.2376 16.034 16.2376 13.5027 16.2376 10.9629C19.4452 10.59 22.6387 10.219 25.8455 9.84616C25.8455 9.90132 25.8455 9.94434 25.8455 9.98773C25.8455 13.3541 25.8463 16.7209 25.8452 20.0873C25.8448 21.3236 24.946 22.3462 23.744 22.4823C22.3216 22.6437 21.0757 21.4578 21.1351 19.9991C21.1926 18.5771 22.3752 17.5402 23.767 17.6917C23.7832 17.6935 23.7997 17.6921 23.8238 17.6921C23.8238 16.1955 23.8238 14.704 23.8238 13.199C21.9653 13.4152 20.1154 13.6303 18.2515 13.8469C18.2515 13.9123 18.2515 13.9686 18.2515 14.0249C18.2515 16.3293 18.2536 18.6341 18.2504 20.9386C18.2493 21.7865 17.9042 22.4606 17.2314 22.9548C16.9366 23.1713 16.604 23.2997 16.2452 23.3567C16.2128 23.3618 16.1815 23.3751 16.1495 23.3846C15.9856 23.3846 15.8216 23.3846 15.658 23.3846Z"
      fill="url(#paint1_linear_606_20309)"/>
  </g>
  <defs>
    <linearGradient id="paint0_linear_606_20309" x1="42.0666" y1="-4.69665" x2="-2.98969"
                    y2="4.93397" gradientUnits="userSpaceOnUse">
      <stop stop-color="#2841B7"/>
      <stop offset="0.319131" stop-color="#B63CCD"/>
      <stop offset="0.655405" stop-color="#CF4CBA"/>
      <stop offset="1" stop-color="#9A43F0"/>
    </linearGradient>
    <linearGradient id="paint1_linear_606_20309" x1="12.9022" y1="8.09487" x2="26.9617" y2="10.5747"
                    gradientUnits="userSpaceOnUse">
      <stop stop-color="#2841B7"/>
      <stop offset="0.319131" stop-color="#B63CCD"/>
      <stop offset="0.655405" stop-color="#CF4CBA"/>
      <stop offset="1" stop-color="#9A43F0"/>
    </linearGradient>
    <clipPath id="clip0_606_20309">
      <rect width="40" height="36.3077" fill="white"/>
    </clipPath>
  </defs>
</svg>
