<svg width="670" height="670" viewBox="0 0 670 670" fill="none" xmlns="http://www.w3.org/2000/svg">
  <rect width="670" height="670" fill="#2B2C32"/>
  <g clip-path="url(#clip0_663_19466)">
    <path
      d="M240.83 249.517C266.595 223.982 307.601 220.971 336.821 241.572C349.201 233.082 364.051 228.464 379.245 228.464C399.176 228.464 417.916 236.139 432.035 250.106C459.356 277.112 461.439 319.739 436.886 349.19C435.399 350.979 433.774 352.744 432.035 354.487L346.684 438.925C344.029 441.551 340.483 443 336.73 443C332.977 443 329.43 441.551 326.776 438.925L240.853 353.899C239.274 352.337 237.878 350.82 236.643 349.326C225.27 336.06 219 319.15 219 301.719C218.954 282.025 226.712 263.485 240.83 249.517ZM248.885 339.139C249.869 340.316 250.944 341.471 252.134 342.671L336.707 426.361L420.708 343.259C422.104 341.878 423.34 340.52 424.507 339.117C443.796 315.981 442.149 282.523 420.708 261.289C409.633 250.332 394.92 244.288 379.245 244.288C368.01 244.288 357.049 247.548 347.69 253.479L354.577 275.373L334.625 260.18L331.536 257.576C308.47 238.085 273.575 239.466 252.134 260.7C241.059 271.679 234.949 286.235 234.949 301.697C234.972 315.392 239.892 328.658 248.885 339.139Z"
      fill="url(#paint0_linear_663_19466)"/>
    <path
      d="M310.993 366.475C309.894 366.189 308.764 365.998 307.706 365.602C301.783 363.374 298.183 357.645 298.566 351.148C298.925 345.059 303.255 339.755 309.206 338.338C310.731 337.974 312.364 338.094 313.948 337.994C314.068 337.987 314.189 337.994 314.398 337.994C314.398 322.947 314.398 307.958 314.398 292.918C333.242 290.71 352.004 288.513 370.844 286.305C370.844 286.632 370.844 286.887 370.844 287.143C370.844 307.078 370.849 327.015 370.842 346.949C370.84 354.27 365.559 360.326 358.498 361.131C350.141 362.087 342.822 355.065 343.17 346.427C343.508 338.007 350.456 331.866 358.633 332.763C358.728 332.774 358.825 332.766 358.967 332.766C358.967 323.903 358.967 315.072 358.967 306.159C348.048 307.44 337.18 308.713 326.229 309.996C326.229 310.383 326.229 310.717 326.229 311.05C326.229 324.696 326.242 338.344 326.223 351.99C326.217 357.011 324.189 361.003 320.236 363.929C318.504 365.212 316.55 365.972 314.442 366.309C314.252 366.34 314.068 366.418 313.88 366.475C312.917 366.475 311.954 366.475 310.993 366.475Z"
      fill="url(#paint1_linear_663_19466)"/>
  </g>
  <defs>
    <linearGradient id="paint0_linear_663_19466" x1="466.141" y1="200.188" x2="201.254" y2="256.361"
                    gradientUnits="userSpaceOnUse">
      <stop stop-color="#2841B7"/>
      <stop offset="0.319131" stop-color="#B63CCD"/>
      <stop offset="0.655405" stop-color="#CF4CBA"/>
      <stop offset="1" stop-color="#9A43F0"/>
    </linearGradient>
    <linearGradient id="paint1_linear_663_19466" x1="294.802" y1="275.935" x2="377.441" y2="290.396"
                    gradientUnits="userSpaceOnUse">
      <stop stop-color="#2841B7"/>
      <stop offset="0.319131" stop-color="#B63CCD"/>
      <stop offset="0.655405" stop-color="#CF4CBA"/>
      <stop offset="1" stop-color="#9A43F0"/>
    </linearGradient>
    <clipPath id="clip0_663_19466">
      <rect width="235" height="215" fill="white" transform="translate(219 228)"/>
    </clipPath>
  </defs>
</svg>
